# xmcd
# 
# Track frame offsets:
#     150
#     18216
#     37498
#     54851
#     71552
#     84695
#     101275
#     122906
#     137177
#     158335
#     176286
#     190904
# 
# Disc length: 2784
# 
# Revision: 0
# Processed by: cddbd v1.5.2PL0 Copyright (c) Steve Scherf et al.
# Submitted via: fre:ac v1.1beta1pre4
# 
DISCID=980ade0c
DTITLE=Irinina Björklund - La vie est une fête
DYEAR=0
DGENRE=
TTITLE0=01.Ma fleur bleue
TTITLE1=02.L'Automne
TTITLE2=03.La vie est une fête
TTITLE3=04.La voix des étoiles
TTITLE4=05.Pour laura
TTITLE5=06.Le rêve bleu
TTITLE6=07.Lui
TTITLE7=08.Au loin s'envolent les nuages
TTITLE8=09.Un accord bleu
TTITLE9=10.Ton mariage
TTITLE10=11.Romance
TTITLE11=12.Tout vu
EXTD=
EXTT0=
EXTT1=
EXTT2=
EXTT3=
EXTT4=
EXTT5=
EXTT6=
EXTT7=
EXTT8=
EXTT9=
EXTT10=
EXTT11=
PLAYORDER=
